<?xml version="1.0" standalone="no"?>
<!DOCTYPE svg PUBLIC "-//W3C//DTD SVG 20010904//EN"
 "http://www.w3.org/TR/2001/REC-SVG-20010904/DTD/svg10.dtd">
<svg version="1.0" xmlns="http://www.w3.org/2000/svg"
 width="1080.000000pt" height="1080.000000pt" viewBox="0 0 1080.000000 1080.000000"
 preserveAspectRatio="xMidYMid meet">
<metadata>
Created by potrace 1.14, written by Peter Selinger 2001-2017
</metadata>
<g transform="translate(0.000000,1080.000000) scale(0.100000,-0.100000)"
fill="#000000" stroke="none">
<path d="M0 5400 l0 -5400 5400 0 5400 0 0 5400 0 5400 -5400 0 -5400 0 0
-5400z m7333 2926 c42 -17 107 -92 107 -122 0 -13 5 -26 10 -29 13 -8 12
-3949 0 -4196 -8 -155 -33 -299 -52 -307 -5 -2 -8 -10 -8 -18 0 -8 -4 -22 -9
-32 -52 -103 -67 -131 -85 -156 -30 -40 -140 -156 -148 -156 -5 0 -29 -15 -55
-34 -82 -57 -149 -85 -308 -125 -168 -43 -395 -52 -505 -22 -70 20 -169 69
-236 117 -97 68 -201 214 -232 322 -7 23 -18 61 -24 85 -16 52 -16 202 0 254
6 21 17 59 24 86 7 26 16 47 20 47 4 0 8 8 8 18 1 9 14 35 30 57 16 22 34 49
39 61 11 25 140 154 154 154 6 0 18 6 26 14 25 23 131 76 151 76 11 0 22 5 25
10 3 6 17 10 30 10 13 0 26 4 29 8 3 5 36 16 73 26 37 9 82 21 99 26 17 6 41
10 54 10 13 0 37 4 54 9 17 6 58 15 91 21 143 28 256 57 297 77 43 21 85 73
100 122 10 37 12 239 10 1061 -2 606 -7 1027 -12 1045 -6 17 -20 36 -32 44
-34 21 -138 14 -303 -20 -82 -17 -168 -33 -190 -35 -22 -3 -49 -9 -60 -14 -11
-5 -38 -11 -60 -14 -22 -3 -94 -17 -160 -32 -66 -14 -140 -28 -165 -31 -25 -3
-49 -9 -54 -14 -6 -5 -31 -9 -57 -9 -26 0 -51 -4 -54 -10 -3 -5 -20 -10 -37
-10 -17 0 -47 -4 -67 -9 -134 -35 -161 -41 -192 -41 -19 0 -39 -4 -44 -9 -6
-5 -30 -12 -55 -15 -117 -14 -136 -18 -155 -26 -11 -6 -47 -15 -80 -20 -60
-11 -107 -20 -200 -39 -27 -6 -75 -14 -105 -17 -30 -4 -59 -10 -65 -14 -5 -4
-26 -10 -45 -14 -95 -15 -255 -51 -258 -58 -2 -4 -10 -8 -19 -8 -18 0 -36 -18
-57 -57 -14 -29 -16 -169 -16 -1523 0 -969 -4 -1498 -10 -1510 -6 -10 -10 -36
-10 -57 0 -21 -5 -56 -11 -78 -6 -22 -15 -65 -20 -95 -6 -30 -14 -57 -18 -60
-4 -3 -11 -17 -15 -33 -3 -15 -15 -36 -26 -47 -11 -11 -20 -25 -20 -31 0 -35
-175 -229 -206 -229 -8 0 -14 -4 -14 -8 0 -5 -21 -19 -47 -32 -27 -13 -55 -29
-63 -35 -33 -25 -184 -66 -339 -91 -82 -14 -260 -20 -326 -11 -37 5 -175 52
-175 59 0 5 -7 8 -15 8 -39 0 -245 189 -245 224 0 8 -6 19 -13 23 -15 10 -37
49 -37 67 0 7 -7 19 -15 26 -9 7 -13 15 -10 18 3 3 -1 15 -8 26 -38 59 -41
330 -5 416 53 128 64 149 94 187 28 36 112 122 151 153 27 22 160 89 217 110
122 43 211 65 400 100 33 6 63 13 68 16 5 3 33 10 61 14 189 32 237 55 281
139 l26 51 0 1689 c0 1116 3 1692 10 1696 6 3 10 17 10 29 0 13 6 35 13 49 17
33 84 107 97 107 5 0 24 8 43 19 18 10 48 21 67 24 71 12 145 29 162 38 10 5
38 9 63 9 25 0 45 4 45 9 0 5 19 11 43 15 95 12 322 57 383 76 17 6 47 10 67
10 20 0 39 5 42 10 3 6 28 10 55 10 27 0 52 5 55 10 3 6 24 10 46 10 21 0 47
4 57 10 9 5 44 14 77 20 33 6 83 16 110 21 28 6 68 12 90 15 22 3 49 9 60 14
11 5 38 11 60 14 64 8 145 24 215 41 61 15 116 26 200 40 19 4 44 10 55 15 11
5 38 11 60 14 57 7 129 21 215 41 86 20 158 34 215 41 22 3 49 9 60 14 11 5
38 11 60 14 22 2 85 13 140 24 122 24 205 26 248 8z"/>
</g>
</svg>
